<svg xmlns="http://www.w3.org/2000/svg" viewBox="0 0 1024 1024">
  <rect width="1024" height="1024" rx="220" fill="#090909"/>
  <g transform="translate(172 130) scale(1.33)">
    <path fill="#F7F7F5" fill-rule="evenodd" clip-rule="evenodd" d="
M48 72
C105 98 155 116 205 119
C226 121 245 132 256 147
C267 132 286 121 307 119
C357 116 407 98 464 72
L256 452
Z

M256 179
C241 158 220 153 204 165
C188 177 184 199 192 223
L256 344
L320 223
C328 199 324 177 308 165
C292 153 271 158 256 179
Z
"/>
    <path fill="#E22D3A" d="M191 215 L205 236 L198 281 Z"/>
    <path fill="#E22D3A" d="M321 215 L307 236 L314 281 Z"/>
  </g>
</svg>